<?xml version="1.0" encoding="UTF-8"?><svg id="Calque_2" xmlns="http://www.w3.org/2000/svg" viewBox="0 0 184.08 163"><defs><style>.cls-1{fill:none;stroke:#ef7e97;stroke-linecap:round;stroke-linejoin:round;stroke-width:3px;}</style></defs><g id="Calque_1-2"><g><g><path class="cls-1" d="m151.51,109.35c-12.1-2.47-13.81-4.33-22.79,3.41-16.31,14.07-42.47,5.7-59.65-1.68C12.57,86.79,14.89,35.19,14.89,35.19-3.13,51.49,2.25,82.31,2.25,82.31c18.95,83.22,107.13,79.16,107.13,79.16,58.82-6.43,70.55-56.54,70.55-56.54-8.54,7.4-18.1,6.51-28.42,4.42Z"/><path class="cls-1" d="m182.5,85.84c-1.12-20.03-14.25-35.75-25.97-45.92-9.79-8.5-18.6-13.11-18.6-13.11-5.7-4.27-12.54-7.8-19.69-9.73-10.82-2.93-22.33-2.18-31.58,5.2-2.23,1.79-4.16,3.1-5.94,4.05-.92.49-1.81.88-2.67,1.18-1.38.49-2.71.76-4.08.87-4.05.3-8.41-.83-15.3-1.97-10.46-1.71-20.61-2.06-30.59,1.29-1.12.38-2.25.8-3.37,1.28-3.87,1.63-7.12,3.76-9.83,6.22,0,0-2.32,51.59,54.18,75.88,17.18,7.38,43.34,15.75,59.65,1.68,8.98-7.74,10.69-5.88,22.79-3.41,10.32,2.09,19.88,2.98,28.42-4.42,2.17-6.73,2.91-13.1,2.57-19.08Zm-55.93,7.82s-20.84,7.37-46.46-6.96c0,0-18.57-13.94-12.69-27.76,3.93-9.22,8.79-24.27,21.84-19.69,0,0,29-5.17,43.01,20.65,14.02,25.83-5.7,33.75-5.7,33.75Z"/><path class="cls-1" d="m126.57,93.66s-20.84,7.37-46.46-6.96c0,0-18.57-13.94-12.69-27.76,3.93-9.22,8.79-24.27,21.84-19.69,0,0,29-5.17,43.01,20.65,14.02,25.83-5.7,33.75-5.7,33.75Z"/><path class="cls-1" d="m126.57,93.66s-20.84,7.37-46.46-6.96c0,0-18.57-13.94-12.69-27.76,3.93-9.22,8.79-24.27,21.84-19.69,0,0,29-5.17,43.01,20.65,14.02,25.83-5.7,33.75-5.7,33.75Z"/><path class="cls-1" d="m50.41,48.23s-7.42,10.54-2,14.15"/><path class="cls-1" d="m60.84,80.62s-1.08,13.48,9.05,9.7"/><path class="cls-1" d="m129.79,39.49s7.95,9.07,7.2,11.5"/><path class="cls-1" d="m143.69,62.88s3.99,5.36,2.75,9.59"/></g><path class="cls-1" d="m80.73,26.33c-.92.49-1.81.88-2.67,1.18-1.38.49-2.71.76-4.08.87-.58-.22-1.12-.51-1.61-.9-2.25-1.81-3.58-4.67-4.67-7.27-2.28-5.45-4.71-11.24-4.65-17.26.03-3.22,1.98-.29,2.88,1.1,1.6,2.49,3.32,6.36,3.81,8,.93,3.08,1.78,6.47,3.48,9.24,1.65,2.68,4.9,3.49,7.5,5.03Z"/></g></g></svg>