<?xml version="1.0" encoding="UTF-8"?><svg id="Calque_2" xmlns="http://www.w3.org/2000/svg" viewBox="0 0 115.88 183"><defs><style>.cls-1{fill:none;stroke:#99c892;stroke-linecap:round;stroke-linejoin:round;stroke-width:3px;}</style></defs><g id="Calque_1-2"><g><line class="cls-1" x1="39.88" y1="67.73" x2="39.87" y2="67.73"/><line class="cls-1" x1="29.97" y1="114.49" x2="29.97" y2="114.49"/><path class="cls-1" d="m111.16,44.5c3.86,18.27,3.54,37.44,2.64,56.17-1.18,24.48-5.28,51.15-25.39,67.64-20.78,17.03-46.69,17.06-69.24,3.1C-1.8,158.42-.32,134.27,4.56,112.96c8.29-36.19,27.95-63.81,54.08-89.42,8.18-8.02,16.46-15.22,22.95-19.08,4.5-2.67,8.13-3.74,10.27-2.34.4.25.74.59,1.03,1.03,1.31,1.95,2.54,3.86,3.72,5.78.08.12.15.25.23.37.63,1.05,2.26,3.8,3.2,5.45.14.24.27.48.41.72.4.73.79,1.45,1.17,2.18,4.56,8.61,7.58,17.62,9.53,26.85Z"/><line class="cls-1" x1="84.47" y1="61.94" x2="84.47" y2="61.94"/><path class="cls-1" d="m15.34,115.28c.71-3.49,1.53-6.98,2.42-10.38,2.18-8.39,4.74-16.27,6.91-22.41"/><line class="cls-1" x1="29.97" y1="114.49" x2="29.97" y2="114.49"/><line class="cls-1" x1="39.88" y1="67.73" x2="39.87" y2="67.73"/><line class="cls-1" x1="84.47" y1="61.94" x2="84.47" y2="61.94"/><path class="cls-1" d="m15.34,115.28c.71-3.49,1.53-6.98,2.42-10.38,2.18-8.39,4.74-16.27,6.91-22.41"/><path class="cls-1" d="m97.38,57.15s.75,54.86-22.68,87.83"/><path class="cls-1" d="m91.08,10.74s-1,11.11-3.1,27.16c-.94,7.2-2.11,15.4-3.51,24.03h0c-5.45,33.72-14.45,74.11-27.54,88"/><path class="cls-1" d="m103.89,36.17c7.47,42.88-.64,98.16-26.89,133.7"/><path class="cls-1" d="m43.47,169.24c-4.53-10.82-2.89-23.21-1.67-34.52.89-8.21,2-16.41,3.38-24.56.67-3.97,1.41-7.93,2.21-11.87,1.79-8.8,3.92-17.51,6.45-26.08,1.17-3.99,2.43-7.95,3.78-11.88,4.8-13.95,10.26-27.74,16.55-41.09"/><path class="cls-1" d="m61.01,29.06s-19.93,24.25-24.3,51.46"/><path class="cls-1" d="m15.6,151.9c-4.07-8.84-3.08-22.75-.26-36.61"/><path class="cls-1" d="m29.41,69.97s-2.07,4.94-4.74,12.52"/><path class="cls-1" d="m34.89,101.94s-22.65,48.83-4.44,67.2"/><path class="cls-1" d="m73.33,154.44s-3.98,13.57-16.46,19.69"/><path class="cls-1" d="m49.37,139.53c6.1-9.65,11.81-26.76,16.58-44.5,2.57-9.57,4.87-19.33,6.82-28.2,0,0,0-.01,0-.01,3.51-16.02,5.86-29.15,6.54-33.08.14-.78.21-1.2.21-1.2"/></g></g></svg>