<?xml version="1.0" encoding="UTF-8"?><svg id="Calque_2" xmlns="http://www.w3.org/2000/svg" viewBox="0 0 180.83 183"><defs><style>.cls-1{fill:none;stroke:#a58ec2;stroke-linecap:round;stroke-linejoin:round;stroke-width:3px;}</style></defs><g id="Calque_1-2"><g><path class="cls-1" d="m95.37,54.82c-5.67-1.34-11.65-.98-17.39.09-19.42,3.62-36.83,15.29-49.37,30.55-12.54,15.26-20.46,33.93-25.04,53.15-1.54,6.46-2.72,13.17-1.67,19.73,2.07,12.91,13.62,19.65,25.55,22.07,12.63,2.56,25.94.38,37.88-4.08.96-.36,1.92-.74,2.87-1.13,14.85-6.14,28.44-15.71,38.22-28.46,9.79-12.74,15.6-28.74,15.01-44.8,0-.01,0-.02,0-.04-.34-9.28-8.58-40.4,2.83-44.91,3.92,8.77,3.31,24.28,3.48,33.75.24,13.53-.45,26.79,6.01,39.19,9.47,18.19,25.8,32.69,43.48,42.68.28.02,2-20.57,2.06-22.62.66-22.77-11.43-44.59-26.52-60.95-13.4-14.54-25.06-21.08-19.11-43.31,2.27-8.47,6.49-16.29,11.14-23.72,2.23-3.57,4.64-7.28,4.9-11.48s-2.58-8.92-6.79-9.03c-4.59-.11-7.47,4.79-9.21,9.04-3.38,8.24-6.37,16.64-8.95,25.17-3.31,10.95-6.19,22.54-13.73,31.13-2.54-5.8-8.15-9.88-14.23-11.64-.47-.14-.95-.26-1.42-.37Z"/><path class="cls-1" d="m11.7,173.99S-.96,103.29,80.35,79.71"/><path class="cls-1" d="m135.46,91.74s15,42.39,33.01,60.77"/></g></g></svg>