<?xml version="1.0" encoding="UTF-8"?><svg id="Calque_2" xmlns="http://www.w3.org/2000/svg" viewBox="0 0 97.54 183"><defs><style>.cls-1{fill:none;stroke:#f6a664;stroke-linecap:round;stroke-linejoin:round;stroke-width:3px;}</style></defs><g id="Calque_1-2"><g><path class="cls-1" d="m92.66,179.33c-3.68-3.72-9.53-10.98-9.95-11.52-4.61-5.86-9.21-11.73-13.82-17.59-9.21-11.73-18.42-23.46-27.63-35.18-15.59-19.85-23.17-52.83,1.88-62.45,18.18-6.98,35.77,8.47,41.11,29.1,4.42,17.07,5.77,34.5,7.12,51.78.63,8.06,1.37,16.81,2.38,25.12.91,7.49,3.28,15.42,1.87,22.72-.12.62-1.32-.33-2.95-1.98Z"/><path class="cls-1" d="m61.36,7.1s4.74,31.95-16.03,43.1c-.62.33-1.28.65-1.96.95-.39.02-.83.03-1.31.04-9.36.12-34.31-1.39-40.56-20.39,0,0,16.96-2.13,30.32,4.79,3.79,1.96,7.28,4.66,10.02,8.33.09-4.61.62-10.72,2.39-16.69,2.5-8.48,7.46-16.7,17.13-20.13Z"/><path class="cls-1" d="m44.23,27.22c-1.77,5.98-2.3,12.08-2.39,16.69-2.74-3.67-6.24-6.36-10.02-8.33-5.87-9.25-10.9-22.27-3.91-34.08,0,0,12.65,11.23,16.33,25.72Z"/><path class="cls-1" d="m31.87,100.78s11.68-2.09,15.85-5.42"/><path class="cls-1" d="m75.25,64.07s-6.26,5.21-10.85,6.67"/><path class="cls-1" d="m89.02,104.95s-5.01,4.17-10.43,5.01"/><path class="cls-1" d="m62.32,142.08s6.88-2.29,10.85-4.59"/><path class="cls-1" d="m93.19,155.84s-3.75,5.21-7.93,5.01"/></g></g></svg>