<?xml version="1.0" encoding="UTF-8"?><svg id="Calque_2" xmlns="http://www.w3.org/2000/svg" viewBox="0 0 57.59 52.67"><defs><style>.cls-1{fill:#fccf9c;}</style></defs><g id="Calque_1-2"><path class="cls-1" d="m56.52,45.69c-5.36-2.56-17.05-6.48-29.49-.07-1.35.69-1.37,2.62-.04,3.33,5.01,2.64,16.27,6.79,29.56.12,1.4-.7,1.38-2.7-.03-3.38Z"/><path class="cls-1" d="m37.46,12.23c-5.36,2.56-15.75,9.19-18.58,22.9-.31,1.48,1.17,2.72,2.57,2.12,5.21-2.23,15.51-8.39,18.67-22.92.33-1.53-1.24-2.77-2.65-2.1Z"/><path class="cls-1" d="m5.36.87c3.19,5.01,8.52,16.12,3.68,29.26-.52,1.42-2.43,1.69-3.3.44C2.51,25.93-2.98,15.26,2.01,1.25c.53-1.48,2.51-1.7,3.36-.38Z"/></g></svg>