<?xml version="1.0" encoding="utf-8"?>
<!-- Generator: Adobe Illustrator 24.1.2, SVG Export Plug-In . SVG Version: 6.00 Build 0)  -->
<svg version="1.1" id="Calque_2_1_" xmlns="http://www.w3.org/2000/svg" xmlns:xlink="http://www.w3.org/1999/xlink" x="0px"
	 y="0px" viewBox="0 0 57.6 52.7" style="enable-background:new 0 0 57.6 52.7;" xml:space="preserve">
<style type="text/css">
	.st0{fill:#F8C8D3;}
</style>
<g id="Calque_1-2">
	<path class="st0" d="M1.1,45.7c5.4-2.6,17-6.5,29.5-0.1c1.4,0.7,1.4,2.6,0,3.3c-5,2.6-16.3,6.8-29.6,0.1
		C-0.4,48.4-0.3,46.4,1.1,45.7z"/>
	<path class="st0" d="M20.1,12.2c5.4,2.6,15.7,9.2,18.6,22.9c0.3,1.5-1.2,2.7-2.6,2.1c-5.2-2.2-15.5-8.4-18.7-22.9
		C17.1,12.8,18.7,11.6,20.1,12.2L20.1,12.2z"/>
	<path class="st0" d="M52.2,0.9c-3.2,5-8.5,16.1-3.7,29.3c0.5,1.4,2.4,1.7,3.3,0.4c3.2-4.6,8.7-15.3,3.7-29.3
		C55.1-0.2,53.1-0.4,52.2,0.9L52.2,0.9z"/>
</g>
</svg>
