<?xml version="1.0" encoding="UTF-8"?><svg id="Calque_2" xmlns="http://www.w3.org/2000/svg" viewBox="0 0 169.98 163"><defs><style>.cls-1{fill:none;stroke:#74b7e5;stroke-linecap:round;stroke-linejoin:round;stroke-width:3px;}</style></defs><g id="Calque_1-2"><g><path class="cls-1" d="m133.36,65.78s-1.01,3.26-1.06,7.87"/><path class="cls-1" d="m117.78,29.26s.9-5.07-5.48-10.39"/><path class="cls-1" d="m101.5,64.83s7.09-.83,8.35-10.23"/><path class="cls-1" d="m154.14,72.71s2.04-6.84-6.1-11.71"/><path class="cls-1" d="m95.15,21.76s-5.47-7.34-14.61-8.57"/><path class="cls-1" d="m92.72,39.83s-12.81-4.62-12.05-1.62"/><path class="cls-1" d="m32.42,138.25s1.34-30.05,14.6-42.22"/><path class="cls-1" d="m41.19,139.43s23.85-.21,38.45-24.44"/><path class="cls-1" d="m35.5,147.54s25.9,5.88,68.87-6.78"/><path class="cls-1" d="m23.79,134.94c-.88,4.18-14.66-43.42,3.51-76.7.33-.77.67-1.53,1.02-2.29"/><path class="cls-1" d="m1.5,161.5v-.03"/><path class="cls-1" d="m168.45,90.52c-.18,4.85-1.19,9.63-3.11,14.14-4.6,10.8-15.38,21.5-24.41,28.89-6.45,5.28-13.91,9.26-21.62,12.36-29.88,12.08-63.99,12.31-95.59,9.49,0,0-44.02-75.07,1.78-124.05,0,0,23.06-29.63,46.17-29.84-1.49,16.63-2.13,88.18,96.78,89.02Z"/><path class="cls-1" d="m168.45,90.52C69.54,89.69,70.17,18.13,71.67,1.5c.5,0,.98.02,1.46.04,0,0,28.89-2.4,63.95,30.71,14.16,13.36,27.89,30.15,30.89,49.97.43,2.75.59,5.54.48,8.3Z"/></g></g></svg>