<?xml version="1.0" encoding="UTF-8"?><svg id="Calque_2" xmlns="http://www.w3.org/2000/svg" viewBox="0 0 188.87 183"><defs><style>.cls-1{fill:none;stroke:#edc35a;stroke-linecap:round;stroke-linejoin:round;stroke-width:3px;}</style></defs><g id="Calque_1-2"><g><path class="cls-1" d="m98.59,100.29c-3.68,3.98-7.13,7.83-10.54,11.56-5.7,3.07-14.75,9.94-20.87,18.74-11.18,5.82-23.9,5.32-36.08-1.57-7.73-4.38-28.87-19.84-29.6-20.21,1.39-3.15,2.31-6.62,4.24-9.38,10.76-15.51,28.53-22.64,46.18-20.01,5.38.8,10.75,2.52,15.92,5.18,3.53,1.82,7.23,3.31,10.92,4.8,3.26,1.31,6.53,2.63,9.69,4.15,3.57,1.72,6.68,4.4,10.14,6.75Z"/><path class="cls-1" d="m109.07,166.71c-4.14,2.63-8.63,4.93-13.02,7.07-5.82,2.84-11.72,5.6-17.86,7.72-5.1-7.5-12.29-14.67-15.84-23.66-3.85-9.75-.71-19.29,4.83-27.25,6.12-8.8,15.17-15.66,20.87-18.74,2.68-1.44,4.62-2.05,5.19-1.63,4.96,3.61,8.4-7.68,14.71-6.33.03,0,.06.02.09.03,1.32.3,2.8,1.3,3.52,2.42,3.48,5.55,6.69,11.29,10.05,16.93,1.9,3.18,3.23,6.47,4.03,9.78,3.95,16.29-4.92,26.28-16.56,33.67Z"/><path class="cls-1" d="m187.37,100.11c-2.78,2.02-5.77,3.67-8.06,6-6.37,6.47-12.45,13.27-18.68,19.92-5.36,5.7-15.5,8.69-25.02,8.52-3.05-.06-6.02-.43-8.74-1.15-.41-.11-.85-.23-1.24-.37-.82-3.3-2.13-6.59-4.05-9.78-3.36-5.63-6.56-11.36-10.03-16.93-.7-1.11-2.2-2.12-3.54-2.4-.22-1.93-.17-3.47.28-4.4,1.85-3.71,5.32-6.63,9.02-9.15.31-.23.63-.45.95-.63-1.82,2.26,11.62-11.61,25.51-14.46.49-.1,1-.18,1.51-.26h-.11c12.85-3.34,23.41-.08,31.45,10.74,3.36,4.58,6.8,9.09,10.76,14.36Z"/><path class="cls-1" d="m154.15,67.26c-2.81,3.21-6.59,5.68-10.39,8.02-13.89,2.85-27.33,16.72-25.51,14.46-.32.18-.63.41-.95.63l10.5-23.87c-11.28,3.57-12.33,12.75-17.7,18.78,5.12-10.01,10.29-20.03,15.43-30.02-.76-.51-1.53-.96-2.31-1.44-12.08,6.34-13.84,20.25-20.5,30.73-.41-1.2-.79-2.56-1.13-4.13-1.62-7.35-2.45-18.3-.23-29.2l.04-.05c.28-1.38.6-2.76.99-4.14l.14-.35c.55-1.33.99-2.67,1.32-4.02l.04-.05c1.04-2.75,2.34-5.43,3.96-7.99,2.68-4.28,6.16-8.17,10.72-11.35.12-.06.22-.14.36-.23,10.83-7.43,20.94-7.14,31.22-8.19,3.04-.29,6.09-.72,9.21-1.49,5.77,19.23,8.82,37.59-5.22,53.9Z"/><path class="cls-1" d="m72.58,48.88c-1.48,2.21-3.84,4.27-4.33,6.67-1.96,10.11,2.24,18.8,7.29,27.15,1.4,2.29,2.99,4.46,4.67,6.99-.4-.07-.9-.16-1.46-.27-3.7-1.5-7.4-3.01-10.92-4.8-5.15-2.67-10.53-4.4-15.9-5.2-22.31-3.3-25.33-26.18-18.6-43.98,4.02-10.62,9.87-20.55,15.23-30.62.87-1.63,3.49-3.43,5.22-3.31,5.94.38,11.92.81,17.85,1.41,4.26.41,8.52.92,12.78,1.55,3.12.48,5.82,1.49,8.19,2.94,4.27,2.63,7.32,6.71,9.24,11.72.34.89.66,1.8.92,2.74,2,6.83,2.94,13.72,1.11,20.73t-.01.07c-.55,1.45-1.04,2.9-1.46,4.37-.49,1.3-.81,2.69-.99,4.14l-.04.05c-2.22,10.9-1.4,21.85.23,29.2-8.95-10.76-8.27-24.54-10.65-38.13-6.77,3.85-8.18,8.97-7.02,13.69,2.37,9.7,5.92,19.08,9.15,28.53.71,2.09,2.09,3.99,3.34,6.33-12.82-6.24-20.93-19.94-21.42-34.9-.06-2.38-1.57-4.71-2.41-7.05Z"/><path class="cls-1" d="m71.62,2.91c4.26.41,8.52.92,12.78,1.55,3.12.48,5.82,1.49,8.19,2.94"/><path class="cls-1" d="m118.93,23.03c10.83-7.43,20.94-7.14,31.22-8.18"/></g></g></svg>