<?xml version="1.0" encoding="utf-8"?>
<!-- Generator: Adobe Illustrator 24.1.2, SVG Export Plug-In . SVG Version: 6.00 Build 0)  -->
<svg version="1.1" id="Calque_1" xmlns="http://www.w3.org/2000/svg" xmlns:xlink="http://www.w3.org/1999/xlink" x="0px" y="0px"
	 viewBox="0 0 1925.7 104.9" style="enable-background:new 0 0 1925.7 104.9;" xml:space="preserve">
<style type="text/css">
	.st0{fill:#FBDAE2;}
</style>
<g id="Groupe_474" transform="translate(5122.5 -4514.549)">
	<g>
		<path id="Tracé_950_9_" class="st0" d="M-5120.5,4565.9c0,0,381.6-73.3,953.7,0s968,0,968,0v51.6h-1921.7V4565.9z"/>
		<path id="Tracé_950_-_Contour_9_" class="st0" d="M-4668.3,4531.3c164.2,0,333,11,501.8,32.6c167.5,21.5,336.1,32.4,505,32.6
			c65.4,0,130.4-1.7,193.1-5.1c50.2-2.7,99.2-6.5,145.5-11.2c41.2-4.2,72.6-8.4,91.8-11.2c20.7-3,31.8-5.1,31.9-5.1l2.4-0.4v56
			h-1925.7v-55.2l1.6-0.3c0.1,0,10.9-2.1,31-5.1c18.6-2.8,49.1-7,89.3-11.2c45.2-4.7,93-8.5,142.3-11.2
			C-4796.7,4533-4732.8,4531.3-4668.3,4531.3z M-3661.5,4600.5c-169-0.2-337.9-11-505.5-32.6c-168.7-21.6-337.3-32.6-501.3-32.6
			c-64.4,0-128.3,1.7-189.7,5.1c-49.2,2.7-97,6.5-142.1,11.2c-40.1,4.2-70.6,8.4-89.1,11.2c-15.6,2.3-25.5,4.1-29.2,4.8v47.9h1917.7
			v-47.2c-4.3,0.8-14.4,2.5-29.7,4.7c-19.2,2.8-50.6,7-91.9,11.2c-46.4,4.7-95.4,8.5-145.7,11.2
			C-3531,4598.7-3596,4600.5-3661.5,4600.5L-3661.5,4600.5z"/>
		<path id="Tracé_951_9_" class="st0" d="M-4668.3,4514.5c164.2,0,333,11,501.8,32.6c167.5,21.5,336.1,32.4,505,32.6
			c65.4,0,130.4-1.7,193.1-5.1c50.2-2.7,99.2-6.5,145.5-11.2c41.2-4.2,72.6-8.4,91.8-11.2c20.7-3,31.8-5.1,31.9-5.1l2.4-0.4v56
			h-1925.7v-55.2l1.6-0.3c0.1,0,10.9-2.1,31-5.1c18.6-2.8,49.1-7,89.3-11.2c45.2-4.7,93-8.5,142.3-11.2
			C-4796.7,4516.3-4732.8,4514.5-4668.3,4514.5z M-3661.5,4583.7c-169-0.2-337.9-11-505.5-32.6c-168.7-21.6-337.3-32.6-501.3-32.6
			c-64.4,0-128.3,1.7-189.7,5.1c-49.2,2.7-97,6.5-142.1,11.2c-40.1,4.2-70.6,8.4-89.1,11.2c-15.6,2.3-25.5,4.1-29.2,4.8v47.9h1917.7
			v-47.2c-4.3,0.8-14.4,2.5-29.7,4.7c-19.2,2.8-50.6,7-91.9,11.2c-46.4,4.7-95.4,8.5-145.7,11.2
			C-3531,4582-3596,4583.7-3661.5,4583.7L-3661.5,4583.7z"/>
	</g>
</g>
</svg>
