<svg xmlns="http://www.w3.org/2000/svg" width="1925.69" height="104.902" viewBox="0 0 1925.69 104.902">
  <g id="Groupe_474" data-name="Groupe 474" transform="translate(5122.5 -4514.549)">
    <path id="Tracé_950" data-name="Tracé 950" d="M-7199-12967.808s381.557-73.312,953.739,0,967.951,0,967.951,0v51.581H-7199Z" transform="translate(-10397.81 -8399.678) rotate(180)" fill="#fbdae2"/>
    <path id="Tracé_950_-_Contour" data-name="Tracé 950 - Contour" d="M-6746.83-13002.391c164.158,0,333,10.968,501.823,32.6a3988.783,3988.783,0,0,0,505,32.566c65.37,0,130.353-1.711,193.143-5.086,50.234-2.7,99.185-6.464,145.494-11.188,41.2-4.2,72.64-8.405,91.758-11.189,20.715-3.017,31.829-5.065,31.938-5.086l2.364-.437v55.985H-7201v-55.233l1.623-.312c.106-.021,10.874-2.079,31-5.1,18.556-2.79,49.112-7,89.3-11.212,45.159-4.733,93.031-8.5,142.287-11.209C-6875.23-13000.677-6811.316-13002.391-6746.83-13002.391Zm1006.822,69.166a3992.636,3992.636,0,0,1-505.508-32.6c-168.659-21.609-337.326-32.566-501.314-32.566-64.414,0-128.254,1.712-189.747,5.088-49.19,2.7-97,6.467-142.089,11.192-40.113,4.2-70.6,8.405-89.12,11.189-15.592,2.345-25.523,4.1-29.214,4.776v47.918h1917.69v-47.193c-4.3.751-14.381,2.455-29.675,4.683-19.152,2.79-50.646,7-91.915,11.211-46.377,4.732-95.4,8.5-145.7,11.208C-5609.479-12934.938-5674.55-12933.225-5740.007-12933.225Z" transform="translate(-10397.81 -8399.678) rotate(180)" fill="#fbdae2"/>
    <path id="Tracé_951" data-name="Tracé 951" d="M-6746.83-13002.391c164.158,0,333,10.968,501.823,32.6a3988.783,3988.783,0,0,0,505,32.566c65.37,0,130.353-1.711,193.143-5.086,50.234-2.7,99.185-6.464,145.494-11.188,41.2-4.2,72.64-8.405,91.758-11.189,20.715-3.017,31.829-5.065,31.938-5.086l2.364-.437v55.985H-7201v-55.233l1.623-.312c.106-.021,10.874-2.079,31-5.1,18.556-2.79,49.112-7,89.3-11.212,45.159-4.733,93.031-8.5,142.287-11.209C-6875.23-13000.677-6811.316-13002.391-6746.83-13002.391Zm1006.822,69.166a3992.636,3992.636,0,0,1-505.508-32.6c-168.659-21.609-337.326-32.566-501.314-32.566-64.414,0-128.254,1.712-189.747,5.088-49.19,2.7-97,6.467-142.089,11.192-40.113,4.2-70.6,8.405-89.12,11.189-15.592,2.345-25.523,4.1-29.214,4.776v47.918h1917.69v-47.193c-4.3.751-14.381,2.455-29.675,4.683-19.152,2.79-50.646,7-91.915,11.211-46.377,4.732-95.4,8.5-145.7,11.208C-5609.479-12934.938-5674.55-12933.225-5740.007-12933.225Z" transform="translate(-10397.81 -8382.939) rotate(180)" fill="#fbdae2"/>
  </g>
</svg>
