<?xml version="1.0" encoding="UTF-8"?><svg id="Calque_2" xmlns="http://www.w3.org/2000/svg" viewBox="0 0 1925.69 88.17"><defs><style>.cls-1{fill:#FCCF9C;}</style></defs><g id="Calque_1-2"><path id="Tracé_952" class="cls-1" d="m2,34.58s381.56-73.31,953.74,0,967.95,0,967.95,0v51.58H2v-51.58Z"/><path id="Tracé_952_-_Contour" class="cls-1" d="m454.17,0c164.16,0,333,10.97,501.82,32.6,167.47,21.53,336.15,32.41,505,32.57,65.37,0,130.35-1.71,193.14-5.09,50.23-2.7,99.19-6.46,145.49-11.19,41.2-4.2,72.64-8.41,91.76-11.19,20.71-3.02,31.83-5.07,31.94-5.09l2.36-.44v55.99H0v-55.23l1.62-.31c.11-.02,10.87-2.08,31-5.1,18.56-2.79,49.11-7,89.3-11.21,45.16-4.73,93.03-8.5,142.29-11.21C325.77,1.71,389.68,0,454.17,0Zm1006.82,69.17c-169.02-.16-337.87-11.04-505.51-32.6C786.83,14.96,618.16,4,454.17,4c-64.41,0-128.25,1.71-189.75,5.09-49.19,2.7-97,6.47-142.09,11.19-40.11,4.2-70.6,8.41-89.12,11.19-15.59,2.34-25.52,4.1-29.21,4.78v47.92h1917.69v-47.19c-4.3.75-14.38,2.46-29.67,4.68-19.15,2.79-50.65,7-91.92,11.21-46.38,4.73-95.4,8.5-145.7,11.21-62.88,3.38-127.95,5.09-193.41,5.09h0Z"/></g></svg>